<?xml version="1.0" encoding="utf-8"?>
<!-- Generator: Adobe Illustrator 18.1.0, SVG Export Plug-In . SVG Version: 6.00 Build 0)  -->
<svg version="1.1" id="Layer_1" xmlns="http://www.w3.org/2000/svg" xmlns:xlink="http://www.w3.org/1999/xlink" x="0px" y="0px"
	 viewBox="0 0 256 256" style="enable-background:new 0 0 256 256;" xml:space="preserve">
<style type="text/css">
	.st0{fill:#BB9D6E;}
</style>
<g id="Your_Icon_2_">
	<path class="st0" d="M45.8,245c2.9,0.3,5.5-1.7,6-4.5c-0.3,3.1,2,5.8,5.1,6.1c3.1,0.3,5.9-2,6.2-5.1c0.3-3.3,1.1-11.8,1.4-14.9
		c0.1,0,0.2,0,0.2,0c20.2,1.7,43-13.4,47.5-45.3c2-13.8-1.6-27.6-10-38.7c-5.7-7.6-13.2-13.3-21.7-16.8c0.6-1.2,1.1-2.6,1.3-4
		c0.5-3.6-0.4-7.3-2.6-10.2c-2.2-2.9-5.4-4.8-9.1-5.4c-6.8-1-13.3,3.3-15.2,9.9c-0.2,0.6-0.3,1.2-0.4,1.9c-0.2,1.4-0.1,2.8,0.1,4.2
		c-1.5,0.2-3,0.4-4.4,0.7l-3.6-9.8c3.6-2.6,6.4-6.3,7.7-10.7c0.6-2.2,0.9-4.4,0.7-6.7l-1.6-25c-0.2-2.3-0.7-4.6-1.6-6.7l13.4-11
		c0.3,0.2,0.6,0.4,0.9,0.5c4.7,2.3,10.1,2.7,15.1,1l23.7-8.1c6.1-2.1,10.9-7.1,12.7-13.3c0,0,0-0.1,0-0.1l11.8-0.2
		c1.9,4.8,5.7,8.8,10.8,10.9l23.2,9.5c4.8,2,10.1,2,14.9,0.1l5.2,6.6c-1.1,1.7-2,3.5-2.5,5.4c-0.8,2.6-0.9,5.4-0.6,8.1l3.4,24.8
		c1,7.4,6.1,13.3,12.6,15.8l-0.3,8.2c-17.4,0.6-34.2,9.8-43.5,25.9c-3,5.1-5.1,10.2-6.5,15.1c-6.2,21.8,2.1,40.7,15.8,49.8
		c0.1,0,0.1,0.1,0.2,0.2c-1.6,2.7-6.2,9.9-8,12.7c-1.7,2.6-0.9,6.1,1.8,7.8c2.6,1.7,6.1,0.9,7.8-1.8l0,0c-0.2,0.4-0.4,0.7-0.5,1.1
		c-0.7,2.4,0.2,5,2.4,6.3c2.6,1.7,6.1,0.9,7.8-1.8c0.7-1.1,6.3-9.9,8.2-13.1c0.1,0,0.2,0,0.2,0.1c18.1,9.1,44.8,3.8,61-24.1
		c12.2-21,8-47-8.5-63.3c1-0.9,2-2,2.7-3.3c0.6-1,1-2,1.3-3.1c1.7-6.1-0.9-12.5-6.3-15.7c-6.6-3.8-15-1.6-18.8,5c-0.6,1-1,2-1.3,3.1
		c-0.1,0.3-0.1,0.6-0.2,0.8c-1.4-0.4-2.9-0.7-4.3-1l0.3-8.3c7-1.6,12.7-6.8,14.7-13.8c0.8-2.6,0.9-5.4,0.6-8.1L219.7,68
		c-1.5-10.8-11.5-18.4-22.3-16.9c-1.8,0.2-3.5,0.8-5.2,1.5l-5-6.4c0.8-1.2,1.5-2.4,2.1-3.8c4.2-10.2-0.8-21.7-10.8-25.8L155.3,7
		c-4.9-2-10.3-2-15.2,0c-4.9,2-8.7,5.8-10.7,10.7c-0.3,0.7-0.5,1.4-0.7,2.1c-0.1,0.5-0.2,1-0.3,1.4l-11,0.2c0-0.1-0.1-0.2-0.1-0.4
		c-1.7-5-5.2-9-10-11.4c-4.7-2.3-10.1-2.7-15.1-1l-23.7,8.1C62.4,19,57.6,24,55.8,30.2c-1.1,3.9-1,8,0.3,11.8
		c0.3,0.9,0.7,1.8,1.2,2.7L44.5,55.3c-3.6-2.3-7.8-3.5-12.1-3.2c-8.3,0.5-15.5,6.3-17.7,14.3c-0.6,2.2-0.9,4.4-0.7,6.7l1.6,25
		c0.7,10.7,9.8,18.8,20.4,18.5l3.5,9.6c-13.8,6.2-24.8,18.2-29.1,33.4c-0.7,2.3-1.2,4.6-1.5,7c-4.5,31.9,13.2,52.7,33.1,56.7
		c0.1,0,0.2,0,0.3,0.1c-0.4,3.7-1.4,14.1-1.5,15.4C40.4,241.9,42.7,244.7,45.8,245z M233.2,194.9c-9.6,16.5-28.5,28.6-46.1,19.7
		c-5.4-2.7-11.8-1.2-14.6,3.4c2.6-4.8,0.8-11-4.2-14.4c-16.5-10.9-15.4-33.3-5.8-49.8c11.3-19.5,36.4-26.2,55.9-14.8
		C237.9,150.3,244.5,175.4,233.2,194.9z M223.2,125.8c0.7-1.2,2.2-1.6,3.4-0.9c1,0.6,1.4,1.7,1.1,2.8c-0.1,0.2-0.1,0.4-0.2,0.6
		c-0.7,1.2-2.2,1.6-3.4,0.9c0,0,0,0,0,0c0,0,0,0,0,0C222.9,128.5,222.5,127,223.2,125.8z M208.5,69.5l3.4,24.8
		c0.2,1.2,0.1,2.3-0.2,3.5c-0.6,2-1.8,3.6-3.4,4.7l0.3-8c0.1-3.1-2.3-5.7-5.5-5.9c-2.7-0.1-4.9,1.7-5.6,4.1
		c-0.1,0.4-0.2,0.9-0.2,1.4l-0.2,6.7c-1-1.2-1.6-2.6-1.9-4.2l-3.4-24.8c-0.1-0.6-0.1-1.2-0.1-1.8l3.9,5c1.9,2.5,5.5,2.9,8,0.9
		c2.5-1.9,2.9-5.5,0.9-8l-4.5-5.7C204.2,62.1,207.9,65.2,208.5,69.5z M144.5,17.5c2.1-0.9,4.4-0.9,6.5,0l23.2,9.5
		c3.7,1.5,5.7,5.3,5.1,9.1l-2.7-3.5c-1.9-2.5-5.5-2.9-8-0.9c-1,0.8-1.6,1.8-1.9,2.9c-0.5,1.7-0.2,3.6,1,5.1l2.8,3.6
		c-0.9-0.1-1.9-0.2-2.8-0.6l-23.2-9.5c-0.5-0.2-1-0.5-1.4-0.8l4.3-0.1c3.1-0.1,5.6-2.6,5.5-5.8c-0.1-3.1-2.6-5.6-5.8-5.5l-6.7,0.1
		C141.4,19.5,142.8,18.2,144.5,17.5z M72.2,27.6l23.7-8.1c2.1-0.7,4.4-0.6,6.5,0.4c0.9,0.5,1.8,1.1,2.4,1.8l-4.5,0.1
		c-2.5,0.1-4.7,1.8-5.3,4.1c-0.2,0.5-0.2,1.1-0.2,1.7c0.1,3.1,2.6,5.6,5.8,5.5l4.4-0.1c-1,1.1-2.2,2-3.6,2.4l-23.7,8.1
		c-0.6,0.2-1.1,0.3-1.7,0.4l4.1-3.4c2.4-2,2.8-5.6,0.8-8c-2-2.4-5.6-2.8-8-0.8l-6.3,5.2C65.9,33.1,68.3,28.9,72.2,27.6z M26.9,97.4
		l-1.6-25c-0.3-4.6,3.4-8.7,7.9-9c0.5,0,0.9,0,1.4,0l-3.8,3.1c-0.9,0.8-1.5,1.7-1.8,2.8c-0.5,1.7-0.2,3.7,1.1,5.2
		c2,2.4,5.6,2.8,8,0.8l4.2-3.5l1.6,24.5c0.1,1,0,1.9-0.3,2.9c-0.2,0.8-0.6,1.6-1,2.2l-2-5.5c-1.1-2.9-4.3-4.4-7.3-3.4
		c-1.8,0.6-3,2.1-3.5,3.8c-0.3,1.1-0.3,2.3,0.1,3.5l1.7,4.5C28.9,103,27.1,100.5,26.9,97.4z M66.3,121.3c-0.2-0.3-0.6-0.9-0.5-1.8
		c0.2-1.4,1.5-2.3,2.8-2.1c0.9,0.1,1.4,0.7,1.6,1c0.2,0.3,0.6,0.9,0.5,1.8c0,0.1,0,0.2-0.1,0.3c-0.3,1.2-1.5,1.9-2.7,1.7l0,0
		c0,0,0,0,0,0C67,122.1,66.5,121.6,66.3,121.3z M20.1,168.2c3.1-22.3,23.9-37.9,46.2-34.8c10.8,1.5,20.4,7.2,27,15.9
		c6.6,8.7,9.3,19.5,7.8,30.3c-3.5,25-20.4,36.8-35.3,35.6c-6-0.5-11.3,3.3-12.2,8.7c0.6-5.4-3.4-10.5-9.4-11.7
		C24.9,208.3,17.4,187.2,20.1,168.2z"/>
</g>
<g>
</g>
<g>
</g>
<g>
</g>
<g>
</g>
<g>
</g>
</svg>
