<?xml version="1.0" encoding="utf-8"?>
<!-- Generator: Adobe Illustrator 18.1.0, SVG Export Plug-In . SVG Version: 6.00 Build 0)  -->
<svg version="1.1" id="Layer_1" xmlns="http://www.w3.org/2000/svg" xmlns:xlink="http://www.w3.org/1999/xlink" x="0px" y="0px"
	 viewBox="0 0 256 256" style="enable-background:new 0 0 256 256;" xml:space="preserve">
<style type="text/css">
	.st0{fill:#87724F;}
</style>
<g id="Your_Icon">
	<path class="st0" d="M228.5,176.6c-1.8,0-3.3,0.6-4.8,1.5L194,128l29.7-50c1.4,0.8,3,1.5,4.8,1.5c5.2,0,9.4-4.2,9.4-9.5
		c0-5.2-4.2-9.4-9.4-9.4c-5.2,0-9.4,4.2-9.4,9.4c0,0,0,0.1,0,0.1L161,70.8L132.6,20c2.9-1.6,4.9-4.6,4.9-8.1c0-5.2-4.2-9.4-9.4-9.4
		c-5.2,0-9.4,4.2-9.4,9.4c0,3.5,2,6.5,4.9,8.1L95,70.8l-58.1-0.7c0,0,0-0.1,0-0.1c0-5.2-4.2-9.4-9.4-9.4c-5.2,0-9.4,4.2-9.4,9.4
		c0,5.2,4.2,9.5,9.4,9.5c1.8,0,3.3-0.6,4.7-1.5L62,128l-29.7,50c-1.4-0.8-3-1.5-4.7-1.5c-5.2,0-9.4,4.2-9.4,9.4
		c0,5.2,4.2,9.5,9.4,9.5c5.2,0,9.4-4.2,9.4-9.5c0,0,0-0.1,0-0.1l58.1-0.7l28.5,50.8c-2.9,1.6-4.9,4.6-4.9,8.1c0,5.2,4.2,9.5,9.4,9.5
		c5.2,0,9.4-4.2,9.4-9.5c0-3.5-2-6.5-4.9-8.1l28.5-50.8l58.1,0.7c0,0,0,0.1,0,0.1c0,5.2,4.2,9.5,9.4,9.5c5.2,0,9.4-4.2,9.4-9.5
		C238,180.8,233.7,176.6,228.5,176.6z"/>
</g>
<g>
</g>
<g>
</g>
<g>
</g>
<g>
</g>
<g>
</g>
<g>
</g>
</svg>
