<?xml version="1.0" encoding="utf-8"?>
<!-- Generator: Adobe Illustrator 18.1.0, SVG Export Plug-In . SVG Version: 6.00 Build 0)  -->
<svg version="1.1" id="Layer_1" xmlns="http://www.w3.org/2000/svg" xmlns:xlink="http://www.w3.org/1999/xlink" x="0px" y="0px"
	 viewBox="0 0 256 256" style="enable-background:new 0 0 256 256;" xml:space="preserve">
<style type="text/css">
	.st0{fill:#87724F;}
</style>
<g id="Your_Icon_1_">
	<path class="st0" d="M223.6,172.1c-1.7,0-3.2,0.6-4.5,1.4l-28.3-47.6l28.3-47.6c1.3,0.8,2.8,1.4,4.5,1.4c4.9,0,9-4,9-9c0-5-4-9-9-9
		c-5,0-9,4-9,9c0,0,0,0.1,0,0.1l-55.2,0.7l-27.1-48.3c2.7-1.5,4.6-4.4,4.6-7.7c0-5-4-9-9-9c-5,0-9,4-9,9c0,3.4,1.9,6.2,4.7,7.7
		L96.6,71.5l-55.2-0.7c0,0,0-0.1,0-0.1c0-5-4-9-9-9c-5,0-9,4-9,9c0,5,4,9,9,9c1.7,0,3.2-0.6,4.5-1.4l28.3,47.6l-28.3,47.6
		c-1.4-0.8-2.8-1.4-4.5-1.4c-5,0-9,4-9,9c0,5,4,9,9,9c4.9,0,9-4,9-9c0,0,0-0.1,0-0.1l55.2-0.7l27.1,48.3c-2.7,1.5-4.7,4.4-4.7,7.7
		c0,5,4,9,9,9c5,0,9-4,9-9c0-3.4-1.9-6.2-4.6-7.7l27.1-48.3l55.2,0.7c0,0,0,0.1,0,0.1c0,5,4,9,9,9c4.9,0,9-4,9-9
		C232.6,176.1,228.6,172.1,223.6,172.1z"/>
</g>
<g>
</g>
<g>
</g>
<g>
</g>
<g>
</g>
<g>
</g>
</svg>
